[IMG]http://www.shotpix.com/images/25825844271201096235.jpg[/IMG]

General
Complete name                            : Kelly Rowland Ft. The WAV.s - Down For Whatever [Music Video] 720p [Sbyky].mp4
Format                                   : MPEG-4
Format profile                           : Base Media / Version 2
Codec ID                                 : mp42
File size                                : 62.3 MiB
Duration                                 : 4mn 3s
Overall bit rate mode                    : Variable
Overall bit rate                         : 2 147 Kbps
Encoded date                             : UTC 2011-10-16 19:06:01
Tagged date                              : UTC 2011-10-16 19:06:01

Video
ID                                       : 1
Format                                   : AVC
Format/Info                              : Advanced Video Codec
Format profile                           : High@L3.1
Format settings, CABAC                   : Yes
Format settings, ReFrames                : 1 frame
Codec ID                                 : avc1
Codec ID/Info                            : Advanced Video Coding
Duration                                 : 4mn 3s
Bit rate                                 : 1 996 Kbps
Maximum bit rate                         : 3 555 Kbps
Width                                    : 1 280 pixels
Height                                   : 720 pixels
Display aspect ratio                     : 16:9
Frame rate mode                          : Variable
Frame rate                               : 23.976 fps
Minimum frame rate                       : 23.810 fps
Maximum frame rate                       : 24.390 fps
Color space                              : YUV
Chroma subsampling                       : 4:2:0
Bit depth                                : 8 bits
Scan type                                : Progressive
Bits/(Pixel*Frame)                       : 0.090
Stream size                              : 58.0 MiB (93%)
Tagged date                              : UTC 2011-10-16 19:06:03

Audio
ID                                       : 2
Format                                   : AAC
Format/Info                              : Advanced Audio Codec
Format profile                           : LC
Codec ID                                 : 40
Duration                                 : 4mn 3s
Bit rate mode                            : Variable
Bit rate                                 : 144 Kbps
Maximum bit rate                         : 201 Kbps
Channel(s)                               : 2 channels
Channel positions                        : Front: L R
Sampling rate                            : 44.1 KHz
Compression mode                         : Lossy
Stream size                              : 4.22 MiB (7%)
Title                                    : IsoMedia File Produced by Google, 5-11-2011
Encoded date                             : UTC 2011-10-16 19:06:02
Tagged date                              : UTC 2011-10-16 19:06:03

Shared By Sbyky
[IMG]http://www.shotpix.com/images/76014917432015785852.gif[/IMG]
[IMG]http://www.shotpix.com/images/54100788659511547411.gif[/IMG]